<svg width="22" height="22" viewBox="0 0 22 22" fill="none" xmlns="http://www.w3.org/2000/svg">
<path d="M3.22124 3.22159C7.51693 -1.07362 14.4818 -1.0741 18.7779 3.22159C23.0736 7.51728 23.0731 14.4821 18.7779 18.7783C14.4822 23.073 7.51741 23.0735 3.22124 18.7783C-1.07397 14.4821 -1.07349 7.51775 3.22124 3.22159ZM9.56529 15.7825C9.56529 16.575 10.2076 17.2172 11.0001 17.2172C11.7925 17.2172 12.4348 16.575 12.4348 15.7825V10.0434C12.4348 9.25095 11.7925 8.60865 11.0001 8.60865C10.2076 8.60865 9.56529 9.25095 9.56529 10.0434V15.7825ZM11.0254 7.59093C11.8518 7.59093 12.4028 7.00554 12.3856 6.2829C12.4028 5.52534 11.8518 4.95765 11.0087 4.95765C10.165 4.95765 9.63129 5.52582 9.6136 6.2829C9.61408 7.00554 10.1645 7.59093 11.0254 7.59093Z" fill="#B9B9B9"/>
</svg>
