<svg width="43" height="43" fill="none" xmlns="http://www.w3.org/2000/svg"><g clip-path="url(#clip0)"><path d="M38.285 38.971c-6.58 5.372-27.124 5.372-33.57 0-6.58-5.37-5.908-28.333 0-34.376 5.908-6.042 27.662-6.042 33.57 0 5.909 6.043 6.58 29.005 0 34.376z" fill="#20A851"/><path opacity=".2" d="M21.634 29.572c-5.908 4.7-12.488 7.117-18.665 7.251-4.565-7.788-3.625-26.722 1.746-32.227C9.549-.373 24.723-1.313 33.45 1.776c2.148 8.862-2.283 20.142-11.817 27.796z" fill="#fff"/><path d="M18.411 33.466c-.94 0-1.88-.403-2.417-1.208l-7.52-9.669c-1.074-1.342-.805-3.222.538-4.297 1.342-1.074 3.223-.805 4.297.538l5.102 6.58 11.28-14.637c1.074-1.343 2.954-1.612 4.297-.537 1.343 1.074 1.611 2.954.537 4.297L20.828 32.258c-.671.671-1.477 1.208-2.417 1.208z" fill="#fff"/></g><defs><clipPath id="clip0"><path fill="#fff" d="M0 0h43v43H0z"/></clipPath></defs></svg>