<svg width="21" height="22" fill="none" xmlns="http://www.w3.org/2000/svg"><path d="M18.693 19.043c-3.215 2.624-13.254 2.624-16.403 0-3.215-2.625-2.887-13.845 0-16.797 2.887-2.953 13.516-2.953 16.403 0 2.887 2.952 3.215 14.172 0 16.797z" fill="#FF00A9"/><path opacity=".2" d="M10.558 14.45c-2.887 2.296-6.102 3.477-9.12 3.543C-.793 14.187-.334 4.936 2.29 2.246 4.653-.182 12.067-.641 16.332.868c1.05 4.33-1.115 9.842-5.774 13.582z" fill="#fff"/><path d="M8.982 16.353c-.46 0-.918-.197-1.18-.59l-3.675-4.725c-.525-.656-.394-1.575.262-2.1.656-.524 1.575-.393 2.1.263l2.493 3.215 5.512-7.152c.525-.656 1.443-.787 2.1-.262.656.525.787 1.443.262 2.1l-6.693 8.66c-.328.328-.721.59-1.18.59z" fill="#fff"/></svg>