<svg width="43" height="71" fill="none" xmlns="http://www.w3.org/2000/svg"><g clip-path="url(#clip0)"><path d="M42.062 12.293c-.627-2.13-1.728-4.087-3.305-5.876-1.58-1.788-3.735-3.265-6.465-4.433C29.562.816 26.094.232 21.887.232c-3.356 0-6.776.464-10.26 1.39-3.489.93-6.514 2.252-9.08 3.97l3.34 9.383-1.79 1.483 2.597.781c2.562-1.372 4.897-2.369 7.004-2.99 2.103-.617 4.339-.926 6.709-.926 2.367 0 4.159.584 5.376 1.752 1.217 1.171 1.824 2.577 1.824 4.228 0 1.994-.627 3.762-1.872 5.31a75.422 75.422 0 01-4.147 4.69 73.738 73.738 0 00-3.057 3.4 24.409 24.409 0 00-2.614 3.765 20.718 20.718 0 00-1.824 4.329c-.463 1.547-.69 3.281-.69 5.204a53.993 53.993 0 00.07 2.684H11.02l2.678 1.853h13.023a9.039 9.039 0 01-.1-1.443v-1.238a9.14 9.14 0 01.69-3.453 17.96 17.96 0 011.728-3.248c.69-1.03 1.462-2.01 2.319-2.936.854-.93 1.677-1.805 2.466-2.63a164.104 164.104 0 003.254-3.504 27.455 27.455 0 002.96-3.916 22.225 22.225 0 002.12-4.487c.56-1.614.842-3.383.842-5.309 0-1.923-.315-3.95-.938-6.08z" fill="#E49B31"/><path d="M17.65 12.669c-2.342 0-4.551.298-6.63.896-2.082.6-4.39 1.565-6.923 2.894L0 5.187c2.536-1.663 5.526-2.943 8.973-3.842C12.416.448 15.796 0 19.113 0c4.157 0 7.585.565 10.283 1.695 2.698 1.13 4.828 2.56 6.39 4.29 1.558 1.731 2.646 3.624 3.265 5.687.616 2.062.927 4.023.927 5.884 0 1.864-.28 3.576-.831 5.138a21.327 21.327 0 01-2.095 4.342 26.677 26.677 0 01-2.926 3.79 159.016 159.016 0 01-3.216 3.39c-.78.8-1.593 1.647-2.437 2.547a23.212 23.212 0 00-2.292 2.841c-.682 1-1.254 2.046-1.708 3.144a8.678 8.678 0 00-.682 3.341v1.199c0 .533.032.997.098 1.397H11.02a14.284 14.284 0 01-.244-2.244 51.296 51.296 0 01-.048-2.147c0-1.861.226-3.54.683-5.037a19.84 19.84 0 011.802-4.19 23.648 23.648 0 012.584-3.644 71.78 71.78 0 013.021-3.29 73.759 73.759 0 004.098-4.54c1.231-1.497 1.85-3.209 1.85-5.138 0-1.598-.6-2.958-1.803-4.092-1.202-1.129-2.973-1.694-5.312-1.694z" fill="#FBC343"/><path d="M27.612 63.473c0 2.403-.76 4.257-2.28 5.564-1.52 1.311-3.239 1.964-5.157 1.964-1.921 0-3.639-.653-5.159-1.964-1.518-1.307-2.278-3.161-2.278-5.564 0-2.4.76-4.253 2.278-5.564 2.34-2.02 5.802-2.47 8.542-1.052 2.43 1.258 4.054 3.813 4.054 6.616z" fill="#E49B31"/><path d="M25.064 63.474c0 2.402-.76 4.256-2.28 5.564-1.52 1.31-3.238 1.963-5.157 1.963-1.92 0-3.639-.653-5.159-1.963-1.517-1.308-2.277-3.162-2.277-5.564 0-2.4.76-4.254 2.277-5.565 1.52-1.307 3.239-1.963 5.16-1.963 1.918 0 3.636.656 5.156 1.963 1.52 1.31 2.28 3.165 2.28 5.565z" fill="#FBC343"/></g><defs><clipPath id="clip0"><path fill="#fff" d="M0 0h43v71H0z"/></clipPath></defs></svg>