<svg width="43" height="43" viewBox="0 0 43 43" fill="none" xmlns="http://www.w3.org/2000/svg">
<g clip-path="url(#clip0)">
<path d="M38.2852 38.9713C31.7054 44.3425 11.1605 44.3425 4.71499 38.9713C-1.86477 33.6001 -1.19338 10.6381 4.71499 4.59545C10.6234 -1.44718 32.3768 -1.44718 38.2852 4.59545C44.1936 10.6381 44.865 33.6002 38.2852 38.9713Z" fill="#20A851"/>
<g opacity="0.2">
<path opacity="0.2" d="M21.6343 29.5719C15.7259 34.2718 9.14618 36.6888 2.9693 36.8231C-1.59629 29.0348 -0.656282 10.1013 4.71495 4.59577C9.54906 -0.372597 24.7228 -1.3126 33.4511 1.77584C35.5995 10.6384 31.1683 21.9179 21.6343 29.5719Z" fill="white"/>
</g>
<path d="M18.4113 33.4661C17.4713 33.4661 16.5314 33.0633 15.9943 32.2576L8.47462 22.5894C7.40036 21.2466 7.66897 19.3667 9.01176 18.2924C10.3545 17.2182 12.2345 17.4868 13.3087 18.8296L18.4113 25.4093L29.691 10.7727C30.7652 9.42996 32.6451 9.16134 33.9879 10.2356C35.3307 11.3099 35.5993 13.1898 34.5251 14.5326L20.8284 32.2576C20.157 32.929 19.3514 33.4661 18.4113 33.4661Z" fill="white"/>
</g>
<defs>
<clipPath id="clip0">
<rect width="43" height="43" fill="white"/>
</clipPath>
</defs>
</svg>
