<svg width="43" height="71" viewBox="0 0 43 71" fill="none" xmlns="http://www.w3.org/2000/svg">
<g clip-path="url(#clip0)">
<path d="M42.0618 12.2931C41.4354 10.1622 40.3338 8.20576 38.757 6.41726C37.177 4.62876 35.0221 3.15197 32.2922 1.98415C29.5629 0.816332 26.0945 0.232422 21.8871 0.232422C18.5308 0.232422 15.1107 0.695599 11.6262 1.62195C8.1385 2.5516 5.11312 3.87363 2.54736 5.59189L5.88756 14.9751L4.09733 16.4584L6.69365 17.2394C9.25619 15.8668 11.5913 14.8702 13.698 14.2496C15.8014 13.6322 18.0368 13.3232 20.4068 13.3232C22.7736 13.3232 24.566 13.9071 25.7829 15.0749C26.9998 16.2461 27.6069 17.6521 27.6069 19.3034C27.6069 21.2966 26.9805 23.0653 25.7346 24.6123C24.4823 26.1594 23.1013 27.7229 21.5883 29.3034C20.5382 30.4009 19.5171 31.5347 18.5308 32.7026C17.545 33.8737 16.6714 35.1255 15.9168 36.4678C15.1589 37.8068 14.5518 39.2496 14.0927 40.7966C13.6304 42.3437 13.4025 44.0784 13.4025 46.0013C13.4025 46.622 13.4154 47.3601 13.4508 48.2195C13.4567 48.3781 13.4647 48.5324 13.4738 48.6849H11.0196L13.698 50.5382H26.7209C26.6533 50.1255 26.6212 49.6453 26.6212 49.0954C26.6212 48.545 26.6212 48.1323 26.6212 47.8573C26.6212 46.6895 26.8523 45.5387 27.3114 44.4044C27.7705 43.27 28.3487 42.1895 29.0394 41.1561C29.7297 40.126 30.5009 39.1459 31.3579 38.2201C32.2123 37.2904 33.0345 36.4146 33.8245 35.5892C34.8746 34.4916 35.9601 33.3243 37.0778 32.0857C38.1955 30.8477 39.1845 29.5454 40.0388 28.1696C40.8932 26.7938 41.5995 25.3005 42.1584 23.6832C42.7172 22.0692 42.9998 20.3005 42.9998 18.3743C42.9998 16.4508 42.685 14.4241 42.0618 12.2931Z" fill="#E49B31"/>
<path d="M17.6498 12.6688C15.3076 12.6688 13.0985 12.9673 11.0198 13.5649C8.93777 14.1659 6.63053 15.1301 4.09749 16.4587L0 5.1866C2.53572 3.52377 5.52571 2.24399 8.97263 1.34453C12.4158 0.44836 15.7962 0 19.1128 0C23.2704 0 26.6985 0.565252 29.3962 1.69521C32.0939 2.82516 34.2237 4.2542 35.7854 5.98508C37.344 7.71596 38.4322 9.60928 39.0511 11.6716C39.6668 13.734 39.9778 15.6953 39.9778 17.5563C39.9778 19.4205 39.6984 21.1322 39.1465 22.694C38.5941 24.2592 37.8958 25.7047 37.0517 27.036C36.2075 28.3674 35.2298 29.6274 34.1255 30.826C33.0212 32.0245 31.9481 33.1545 30.9103 34.2164C30.1294 35.0154 29.3169 35.8628 28.4727 36.7628C27.6253 37.6589 26.8637 38.6072 26.181 39.6044C25.4988 40.6048 24.9271 41.6503 24.4734 42.7478C24.0196 43.8454 23.7912 44.9595 23.7912 46.0894C23.7912 46.3556 23.7912 46.7551 23.7912 47.288C23.7912 47.8208 23.8228 48.2851 23.8893 48.6846H11.0198C10.8862 48.019 10.8074 47.2721 10.7752 46.4406C10.7403 45.6092 10.7275 44.8947 10.7275 44.2938C10.7275 42.4328 10.9527 40.7541 11.4097 39.2565C11.8634 37.7594 12.4635 36.3627 13.2122 35.067C13.9583 33.768 14.8212 32.5569 15.7957 31.4231C16.7702 30.2931 17.7795 29.195 18.8173 28.1331C20.312 26.6036 21.677 25.09 22.9148 23.5929C24.1462 22.0959 24.7651 20.3842 24.7651 18.4552C24.7651 16.8571 24.1655 15.4967 22.9625 14.3634C21.7601 13.234 19.9886 12.6688 17.6498 12.6688Z" fill="#FBC343"/>
<path d="M27.612 63.4734C27.612 65.876 26.8521 67.7298 25.3316 69.0375C23.8117 70.3481 22.0933 71.0006 20.1749 71.0006C18.2538 71.0006 16.536 70.3481 15.016 69.0375C13.4982 67.7298 12.7383 65.876 12.7383 63.4734C12.7383 61.0735 13.4982 59.2197 15.016 57.9092C17.356 55.8886 20.8179 55.4386 23.5575 56.8566C25.9886 58.115 27.612 60.6702 27.612 63.4734Z" fill="#E49B31"/>
<path d="M25.0644 63.4735C25.0644 65.876 24.3045 67.7299 22.784 69.0376C21.2641 70.3481 19.5457 71.0006 17.6273 71.0006C15.7062 71.0006 13.9884 70.3481 12.4684 69.0376C10.9506 67.7299 10.1907 65.876 10.1907 63.4735C10.1907 61.0736 10.9506 59.2198 12.4684 57.9093C13.9884 56.6015 15.7067 55.9463 17.6273 55.9463C19.5457 55.9463 21.2635 56.6015 22.784 57.9093C24.3045 59.2198 25.0644 61.0736 25.0644 63.4735Z" fill="#FBC343"/>
</g>
<defs>
<clipPath id="clip0">
<rect width="43" height="71" fill="white"/>
</clipPath>
</defs>
</svg>
